<svg width="20" height="20" viewBox="0 0 20 20" fill="none" xmlns="http://www.w3.org/2000/svg">
<path d="M9.16742 16.667C7.70414 16.6714 6.29263 16.1257 5.21285 15.1382C4.13307 14.1506 3.46389 12.7933 3.33804 11.3354C3.21218 9.87755 3.63883 8.42563 4.53338 7.26761C5.42793 6.10959 6.72503 5.33008 8.16742 5.08366C12.9174 4.16699 14.1674 3.73366 15.8341 1.66699C16.6674 3.33366 17.5008 5.15033 17.5008 8.33366C17.5008 12.917 13.5174 16.667 9.16742 16.667Z" stroke="#FF6B1A" stroke-width="1.25" stroke-linecap="round" stroke-linejoin="round"/>
<path d="M1.66406 17.5C1.66406 15 3.20573 13.0333 5.8974 12.5C7.91406 12.1 9.9974 10.8333 10.8307 10" stroke="#FF6B1A" stroke-width="1.25" stroke-linecap="round" stroke-linejoin="round"/>
</svg>
