<svg width="20" height="20" viewBox="0 0 20 20" fill="none" xmlns="http://www.w3.org/2000/svg">
<path d="M3.33618 11.6662C3.17848 11.6668 3.02387 11.6226 2.8903 11.5387C2.75674 11.4549 2.6497 11.3349 2.58163 11.1926C2.51356 11.0504 2.48725 10.8917 2.50576 10.7351C2.52426 10.5785 2.58683 10.4304 2.68618 10.3079L10.9362 1.8079C10.9981 1.73647 11.0824 1.6882 11.1753 1.67101C11.2683 1.65382 11.3643 1.66874 11.4476 1.71332C11.531 1.7579 11.5967 1.82948 11.634 1.91632C11.6712 2.00317 11.6779 2.10011 11.6528 2.19123L10.0528 7.2079C10.0057 7.33417 9.98982 7.47 10.0067 7.60374C10.0235 7.73748 10.0726 7.86513 10.1496 7.97575C10.2266 8.08638 10.3293 8.17666 10.4489 8.23887C10.5685 8.30107 10.7014 8.33334 10.8362 8.3329H16.6695C16.8272 8.33236 16.9818 8.37658 17.1154 8.46042C17.2489 8.54425 17.356 8.66427 17.4241 8.80652C17.4921 8.94877 17.5184 9.10741 17.4999 9.26402C17.4814 9.42062 17.4189 9.56877 17.3195 9.69123L9.06951 18.1912C9.00762 18.2627 8.92329 18.3109 8.83036 18.3281C8.73742 18.3453 8.6414 18.3304 8.55807 18.2858C8.47473 18.2412 8.40902 18.1697 8.37173 18.0828C8.33444 17.996 8.32778 17.899 8.35284 17.8079L9.95284 12.7912C10 12.665 10.0159 12.5291 9.99902 12.3954C9.98217 12.2617 9.93313 12.134 9.8561 12.0234C9.77907 11.9128 9.67636 11.8225 9.55678 11.7603C9.43719 11.6981 9.3043 11.6658 9.16951 11.6662H3.33618Z" stroke="#FF6B1A" stroke-width="1.25" stroke-linecap="round" stroke-linejoin="round"/>
</svg>
