<svg width="18" height="18" viewBox="0 0 18 18" fill="none" xmlns="http://www.w3.org/2000/svg">
<path d="M3.00256 10.5C2.86063 10.5005 2.72148 10.4607 2.60127 10.3852C2.48106 10.3098 2.38473 10.2018 2.32347 10.0737C2.26221 9.94572 2.23853 9.80294 2.25518 9.66199C2.27184 9.52105 2.32814 9.38772 2.41756 9.2775L9.84256 1.6275C9.89825 1.56321 9.97415 1.51977 10.0578 1.5043C10.1414 1.48883 10.2279 1.50226 10.3029 1.54238C10.3779 1.5825 10.437 1.64692 10.4706 1.72508C10.5041 1.80324 10.5101 1.89049 10.4876 1.9725L9.04756 6.4875C9.0051 6.60114 8.99084 6.72339 9.006 6.84376C9.02117 6.96412 9.0653 7.07901 9.13463 7.17857C9.20395 7.27813 9.29639 7.35939 9.40401 7.41537C9.51164 7.47135 9.63124 7.50039 9.75256 7.5H15.0026C15.1445 7.49952 15.2836 7.53931 15.4038 7.61477C15.5241 7.69022 15.6204 7.79823 15.6816 7.92626C15.7429 8.05428 15.7666 8.19706 15.7499 8.33801C15.7333 8.47895 15.677 8.61228 15.5876 8.7225L8.16256 16.3725C8.10686 16.4368 8.03096 16.4802 7.94732 16.4957C7.86368 16.5112 7.77726 16.4977 7.70226 16.4576C7.62726 16.4175 7.56812 16.3531 7.53456 16.2749C7.50099 16.1968 7.495 16.1095 7.51756 16.0275L8.95756 11.5125C9.00002 11.3989 9.01428 11.2766 8.99911 11.1562C8.98395 11.0359 8.93981 10.921 8.87049 10.8214C8.80117 10.7219 8.70873 10.6406 8.6011 10.5846C8.49347 10.5286 8.37387 10.4996 8.25256 10.5H3.00256Z" stroke="#FF6B1A" stroke-width="1.125" stroke-linecap="round" stroke-linejoin="round"/>
</svg>
