<svg width="50" height="40" viewBox="0 0 50 40" fill="none" xmlns="http://www.w3.org/2000/svg">
<path d="M40 0H0V14.845H3.85407L9.02276 6.97L13.6427 15.72L15.6558 12.655H26.2102C27.1391 9.90393 29.0914 7.61819 31.6603 6.27409C34.2293 4.92998 37.2167 4.6312 40 5.44V0ZM25.7113 17.6575H18.3449L13.1737 25.525L8.55628 16.775L6.54319 19.84H0V32.5H17.5042V35H12.5002C11.8386 35 11.2041 35.2634 10.7362 35.7322C10.2684 36.2011 10.0056 36.837 10.0056 37.5C10.0056 38.163 10.2684 38.7989 10.7362 39.2678C11.2041 39.7366 11.8386 40 12.5002 40H27.4998C28.1614 40 28.7959 39.7366 29.2638 39.2678C29.7316 38.7989 29.9944 38.163 29.9944 37.5C29.9944 36.837 29.7316 36.2011 29.2638 35.7322C28.7959 35.2634 28.1614 35 27.4998 35H22.4933V32.5H40V27.06C38.984 27.3535 37.9317 27.5016 36.8743 27.5C34.1374 27.5009 31.4941 26.502 29.4392 24.6902C27.3844 22.8785 26.059 20.3782 25.7113 17.6575Z" fill="black"/>
<path fill-rule="evenodd" clip-rule="evenodd" d="M44.6223 20.4611C45.3474 19.1734 45.7108 17.7278 45.6771 16.2655C45.6434 14.8033 45.2136 13.3744 44.4298 12.1186C43.6459 10.8629 42.5349 9.8232 41.2053 9.10129C39.8758 8.37937 38.3731 7.99991 36.8444 8.00001C35.6842 7.99874 34.5352 8.2161 33.4629 8.63969C32.3905 9.06328 31.4159 9.68479 30.5946 10.4687C29.7734 11.2527 29.1215 12.1837 28.6763 13.2087C28.2311 14.2337 28.0013 15.3325 28 16.4425C28 21.1051 31.9583 24.8849 36.8444 24.8849C38.3143 24.8872 39.7616 24.5381 41.0548 23.8694L46.4275 29L50 25.5941L44.6223 20.4611ZM36.8444 20.0607C38.9521 20.0607 40.6438 18.4301 40.6438 16.4425C40.6438 14.4549 38.9571 12.8243 36.8444 12.8243C34.7316 12.8243 33.0424 14.4549 33.0424 16.4425C33.0424 18.4301 34.7341 20.0607 36.8444 20.0607Z" fill="black"/>
</svg>
