<svg width="75" height="75" viewBox="0 0 75 75" fill="none" xmlns="http://www.w3.org/2000/svg">
<path d="M23.1255 7.81588C27.351 7.60227 31.5313 8.76978 35.0347 11.142C35.5225 11.4746 35.9947 11.8295 36.4497 12.2056C36.7994 12.4987 37.1653 12.8526 37.5395 13.1063C38.9454 11.5786 41.6407 10.0071 43.556 9.24058C48.3453 7.31321 53.7052 7.37152 58.4516 9.40259C63.2098 11.4335 66.9605 15.2792 68.8718 20.0864C70.838 25.0322 70.6703 30.2839 68.5774 35.1505C67.8783 35.2079 66.632 35.1697 65.8879 35.1695L60.8152 35.1678L55.6834 35.1701C54.8631 35.1705 53.6469 35.2093 52.8713 35.1436L46.6032 24.6799C45.9159 23.6521 44.807 23.1341 43.6084 23.6364C43.1909 23.808 42.8368 24.1048 42.5947 24.4859C42.3211 24.917 42.0135 25.6988 41.8033 26.1865L40.6366 28.8999C39.4204 31.7298 38.1101 34.6479 36.947 37.4893C36.5616 37.0535 36.069 36.3675 35.701 35.8871L33.3748 32.8386C32.9798 32.3203 32.2101 31.2113 31.7262 30.8809C31.2325 30.5504 30.6286 30.4276 30.0451 30.539C29.6407 30.6164 29.2668 30.8077 28.9674 31.0904C28.5864 31.4547 27.7422 32.7599 27.4052 33.2545L24.5245 37.49C23.8028 37.5548 22.4118 37.5134 21.6606 37.5134L16.1088 37.512L10.6276 37.5134C9.80184 37.5142 8.3965 37.5563 7.6108 37.4871C5.92612 34.5732 4.91505 31.7822 4.7304 28.3811C4.42637 23.1652 6.22421 18.0448 9.72229 14.1638C13.1762 10.3606 17.9947 8.07849 23.1255 7.81588Z" fill="url(#paint0_linear_3613_1652)"/>
<path d="M44.8604 31.0022C45.0809 31.0963 48.9565 37.8461 49.5058 38.6251C49.9552 39.2623 50.2774 39.6336 51.153 39.7885C51.7485 39.8936 52.318 39.846 52.8955 39.8449L55.4487 39.8405C58.805 39.8394 62.3064 39.7936 65.6477 39.8574C65.1764 40.3254 64.7278 40.8981 64.2143 41.4138L46.9325 58.6934L41.5671 64.0595L39.9261 65.7034C39.6101 66.0198 39.2827 66.3586 38.9535 66.6395C38.098 67.3741 36.7936 67.332 35.9578 66.5893C35.4392 66.1286 34.9128 65.5522 34.4127 65.0534L30.6119 61.2536L16.5266 47.1505L13.206 43.8348C12.8402 43.4671 11.8888 42.4322 11.5332 42.2099C12.8266 42.163 14.2138 42.1857 15.5125 42.1854L22.0496 42.1857L24.5148 42.1883C24.9897 42.1887 25.7534 42.2088 26.2017 42.1264C26.5887 42.0561 26.9491 41.8814 27.244 41.621C27.7108 41.2061 28.3351 40.1924 28.7045 39.6402L30.5615 36.8727C30.8133 37.1104 31.4 37.9282 31.6338 38.2405L34.2719 41.7701C34.7943 42.4692 35.6104 43.7194 36.2943 44.1706C37.2652 44.8115 38.8172 44.4797 39.4123 43.4642C39.8536 42.7112 40.237 41.6734 40.5948 40.8388L43.4688 34.1433L44.2804 32.2403C44.4448 31.8555 44.6404 31.3519 44.8604 31.0022Z" fill="url(#paint1_linear_3613_1652)"/>
<defs>
<linearGradient id="paint0_linear_3613_1652" x1="16.2657" y1="11.2221" x2="29.0052" y2="45.5253" gradientUnits="userSpaceOnUse">
<stop stop-color="#FF6A00"/>
<stop offset="1" stop-color="#AF4900"/>
</linearGradient>
<linearGradient id="paint1_linear_3613_1652" x1="21.0828" y1="35.1753" x2="41.0753" y2="71.712" gradientUnits="userSpaceOnUse">
<stop stop-color="#FF6A00"/>
<stop offset="1" stop-color="#AF4900"/>
</linearGradient>
</defs>
</svg>
