<svg width="75" height="75" viewBox="0 0 75 75" fill="none" xmlns="http://www.w3.org/2000/svg">
<path d="M36.5571 11.7365C42.7771 11.5018 48.8705 13.5342 53.7041 17.4556C58.1159 21.0234 61.2261 25.9483 62.551 31.4652C62.8601 32.7537 63.018 33.8438 63.1582 35.1502C64.2228 35.1566 65.2877 35.1573 66.3523 35.1523C66.9544 35.1519 68.0123 35.1097 68.5639 35.2506C68.9616 35.353 69.3256 35.5569 69.6207 35.8422C70.5275 36.7215 70.5282 38.2574 69.6317 39.1415C69.3292 39.445 68.9502 39.6618 68.5349 39.7684C68.0204 39.8962 66.8566 39.8578 66.2802 39.8581C65.2475 39.8618 64.2144 39.8585 63.1817 39.8479C63.085 40.2972 63.0579 40.7901 62.9945 41.2508C62.896 41.9345 62.7682 42.6135 62.6118 43.2862C61.6015 47.6636 59.4653 51.701 56.4148 54.9991C51.7749 60.0349 45.319 63.0129 38.4767 63.2744C31.9498 63.4245 25.9384 61.4613 20.9132 57.2345C15.7195 52.8795 12.4626 46.6444 11.8552 39.894C11.4212 39.8413 10.8138 39.8541 10.3694 39.8545L8.08452 39.8596C7.57348 39.8611 6.94447 39.8929 6.4536 39.771C4.73 39.3425 4.11183 37.1811 5.31132 35.891C5.6029 35.58 5.97716 35.3586 6.39014 35.2528C6.97428 35.1012 7.83114 35.1631 8.45019 35.153C9.56511 35.1348 10.7304 35.1878 11.842 35.1433C13.1643 22.0415 23.4096 12.3648 36.5571 11.7365ZM49.388 41.386C49.0503 41.0436 48.1465 40.0881 47.8195 39.8625C52.8776 39.7384 58.091 39.9164 63.1652 39.8387C63.2285 38.884 63.2868 38.0289 63.2714 37.0691C63.2615 36.4517 63.1809 35.7708 63.182 35.1844C61.9124 35.1309 60.4428 35.1676 59.1559 35.1679L52.0364 35.169C50.6422 35.1689 49.1763 35.1905 47.7891 35.1495C48.0656 34.9867 49.4879 33.5052 49.7941 33.1987L51.234 31.7607C51.739 31.2559 52.4433 30.6523 52.6337 29.9426C52.8021 29.315 52.7194 28.6185 52.3759 28.0607C52.0554 27.5411 51.5391 27.1724 50.9433 27.0379C50.6953 26.9836 50.3778 26.9674 50.127 27.0036C49.7161 27.0464 49.3751 27.1227 49.0408 27.3907C48.4772 27.8427 47.9345 28.4261 47.421 28.9403L44.6902 31.6758L41.8927 34.4692C41.4536 34.9075 40.7337 35.5824 40.3616 36.0431C39.9697 36.5301 39.791 37.1544 39.8661 37.7748C39.9877 38.858 40.9603 39.5868 41.6961 40.3229L44.4016 43.0295L47.3218 45.9497C47.851 46.4789 48.379 47.0315 48.9423 47.5255C49.4147 47.94 50.0534 48.088 50.6799 48.0133C51.2963 47.9371 51.8566 47.6167 52.2352 47.1241C52.6165 46.6341 52.7842 46.0112 52.7014 45.396C52.6579 45.0609 52.5399 44.7397 52.3572 44.4555C52.0877 44.0351 51.4992 43.4887 51.1267 43.117L49.388 41.386ZM27.1674 35.1436C26.0975 35.1837 24.9599 35.1688 23.8868 35.1691L18.8452 35.1695L14.3066 35.1691C13.5264 35.1692 12.6249 35.1931 11.8592 35.1593C11.6416 36.0474 11.7467 38.8968 11.829 39.8406L22.0204 39.842L25.2789 39.8428C25.8354 39.8431 26.6287 39.8241 27.1681 39.8688C26.8477 40.091 25.6511 41.3402 25.2807 41.7119C24.7075 42.2813 22.8811 44.0102 22.5653 44.5713C22.3707 44.9228 22.2696 45.3183 22.2718 45.7201C22.2718 46.3401 22.5213 46.9337 22.9639 47.3677C23.7344 48.1235 25.0365 48.2825 25.91 47.6185C26.3988 47.2472 26.8139 46.8 27.2477 46.3668L29.1492 44.4662L32.5618 41.056C33.1628 40.4554 33.7647 39.8581 34.3597 39.2495C34.9257 38.6705 35.1492 38.1911 35.1337 37.3847C35.1122 36.2592 34.1635 35.5319 33.4216 34.7911L31.2641 32.6377L28.0418 29.4139C27.4595 28.8299 26.8781 28.2466 26.2876 27.6709C25.7954 27.191 25.038 26.8713 24.3428 27.0028C22.6037 27.1862 21.7145 29.0705 22.6337 30.5425C22.9005 30.9698 23.4562 31.461 23.8261 31.8298L25.3522 33.3572C25.7079 33.7132 26.7696 34.8277 27.1002 35.0918C27.1222 35.1095 27.1447 35.1268 27.1674 35.1436Z" fill="url(#paint0_linear_3613_1658)"/>
<defs>
<linearGradient id="paint0_linear_3613_1658" x1="16.268" y1="17.668" x2="47.0691" y2="65.5386" gradientUnits="userSpaceOnUse">
<stop stop-color="#FF6A00"/>
<stop offset="1" stop-color="#AF4900"/>
</linearGradient>
</defs>
</svg>
