<svg width="48" height="48" viewBox="0 0 48 48" fill="none" xmlns="http://www.w3.org/2000/svg">
<path d="M48 14.4V33.6L33.6 48H14.4L0 33.6V14.4L14.4 0H33.6L48 14.4ZM4.8 16.32V31.68L16.32 43.2H31.68L43.2 31.68V16.32L31.68 4.8H16.32L4.8 16.32ZM17.7 12.1608C19.8336 11.6808 22.8096 12.276 25.0848 14.0064C26.9016 16.3656 27.5112 19.272 26.9304 21.3912C26.8584 21.74 29.4168 24.46 34.6056 29.5512C36.3016 31.2504 36.3016 32.9488 34.6056 34.6464C33.0104 36.2416 31.4136 36.3352 29.8152 34.9272L21.3912 26.9304C19.272 27.5112 16.3656 26.9016 14.0064 25.0848C12.276 22.8096 11.6784 19.8336 12.1608 17.7L15.852 21.3912L19.5456 19.5432L21.3936 15.852L17.7 12.1608Z" fill="black"/>
</svg>
