<svg width="67" height="67" viewBox="0 0 67 67" fill="none" xmlns="http://www.w3.org/2000/svg">
<path d="M3.57749 12.4045C4.64468 12.3683 5.89739 12.402 6.9815 12.402L13.7765 12.402L34.2379 12.4022L53.5868 12.4023L59.922 12.4006C61.0396 12.4001 62.1659 12.393 63.2838 12.4085C63.6453 12.4135 64.0035 12.4885 64.3071 12.6983C64.6189 12.9172 64.8306 13.2518 64.8953 13.6277C64.9447 13.9195 64.929 14.6585 64.929 14.9869L64.9271 17.4222V26.3586L64.9274 44.0787L64.929 49.8619C64.9297 50.8882 64.9369 51.9158 64.9238 52.9421C64.9107 53.9681 64.418 54.4585 63.4121 54.6014C61.9863 54.6234 60.5135 54.6063 59.0839 54.6063H50.986H26.654H11.2463L6.23939 54.607C5.36395 54.6073 4.48787 54.6145 3.61213 54.6001C3.06902 54.6073 2.45884 54.3415 2.18904 53.8432C1.90595 53.3207 1.99242 52.3295 1.9924 51.7316L1.99257 48.8441L1.99382 39.214L1.99446 22.3947L1.99325 16.964C1.99217 15.9981 1.98614 15.0225 1.99577 14.0585C2.01582 13.6429 2.06287 13.2827 2.33996 12.9516C2.70032 12.521 3.05654 12.4559 3.57749 12.4045ZM32.6154 19.6011C32.4838 18.8461 32.5639 17.0634 32.5396 16.177C30.1675 16.3587 27.8318 16.8364 25.7259 17.9994C26.1821 18.7095 26.5758 19.4821 27.0139 20.205C27.1258 20.3896 27.2307 20.5882 27.3023 20.7919C27.5327 21.435 26.9016 22.1509 26.2356 21.9737C25.8489 21.8708 25.6129 21.5022 25.4328 21.1722C25.0252 20.4252 24.5635 19.696 24.1621 18.9469L24.1484 18.9211C22.4105 19.9184 20.1602 22.206 19.1409 23.9298C19.5964 24.1223 20.0447 24.4343 20.4844 24.6746C20.9362 24.9215 21.3747 25.185 21.8088 25.4664C22.4568 25.8864 22.2914 26.8139 21.61 27.0835C21.3146 27.2004 21.0344 27.1054 20.7648 26.9663C19.9184 26.4972 19.0706 25.9883 18.2333 25.5028C17.1489 27.4262 16.5804 29.9548 16.4019 32.1404C16.3435 32.8539 16.5325 33.2355 17.3067 33.2414C18.55 33.2502 19.7947 33.2417 21.0378 33.2417L28.5763 33.2427L43.5139 33.2358L47.6373 33.2361C48.3263 33.2361 49.0133 33.2329 49.7019 33.2253C50.4684 33.2171 50.5535 32.7454 50.51 32.0652C50.3709 30.1181 49.9041 28.2086 49.1297 26.4172C48.7921 25.6259 48.8396 25.3458 48.0272 25.8794C47.5071 26.2212 46.8636 26.5298 46.331 26.8727C45.995 27.0891 45.6057 27.2356 45.22 27.0557C45.008 26.9543 44.8447 26.7727 44.7662 26.5508C44.6727 26.2889 44.7018 25.9992 44.8235 25.751C45.1032 25.1805 47.6406 24.1917 47.7063 23.8588C47.6471 23.678 47.3569 23.2948 47.2316 23.1222C46.0905 21.5517 44.4427 19.9488 42.7942 18.9167C42.3486 19.6384 41.9397 20.3836 41.517 21.1163C41.3119 21.4724 41.0685 21.903 40.6389 21.9869C39.9882 22.1143 39.3591 21.4356 39.6244 20.7888C39.8184 20.3162 40.0752 19.9326 40.3236 19.4924C40.6144 19.0003 40.8948 18.4819 41.1954 17.9974C39.683 17.1605 37.8277 16.6245 36.1266 16.3415C35.6875 16.2684 34.6505 16.2185 34.3861 16.1415C34.378 16.7822 34.3763 17.4229 34.3822 18.0636C34.3832 18.3799 34.427 19.1444 34.3299 19.418C34.004 20.3384 33.1302 20.274 32.6154 19.6011ZM53.0804 48.9851C55.8157 48.6894 57.7916 46.2248 57.4903 43.4851C57.189 40.7451 54.725 38.7708 51.991 39.0786C49.2658 39.3854 47.3026 41.8452 47.6029 44.5763C47.9033 47.3078 50.3536 49.2801 53.0804 48.9851ZM6.23207 15.2227C5.24532 15.4696 4.64406 16.4699 4.88768 17.4592C5.13131 18.4486 6.128 19.0539 7.11609 18.8125C8.1081 18.5702 8.71512 17.5668 8.47051 16.5735C8.2259 15.5802 7.2227 14.9748 6.23207 15.2227ZM60.3614 15.1708C59.3391 15.1034 58.4577 15.8832 58.3979 16.9079C58.338 17.9327 59.1225 18.8102 60.1458 18.8626C61.1583 18.9146 62.0233 18.1382 62.0825 17.1239C62.1417 16.1097 61.3733 15.2376 60.3614 15.1708ZM37.5794 44.9028L35.5606 43.4307C35.3097 43.2488 34.7676 42.8348 34.5104 42.6997C35.2845 40.6091 36.1632 38.5457 36.9474 36.4576C36.9677 36.4045 36.9618 36.3675 36.951 36.3144C35.3241 37.6511 33.6347 39.1671 32.0304 40.5547L30.2688 42.0789C30.0157 42.2978 29.5536 42.6778 29.3356 42.9121C30.3146 43.6234 31.2707 44.4986 32.2332 45.2073C31.9874 46.0015 30.0943 51.4638 30.1439 51.749L30.1892 51.7539L30.247 51.6857C31.9492 50.0884 33.6608 48.5006 35.3813 46.9233C36.0431 46.3152 36.9506 45.5295 37.5794 44.9028ZM14.9021 48.9851C17.638 48.6914 19.6158 46.2274 19.3159 43.4871C19.0159 40.7468 16.5521 38.7708 13.8177 39.0783C11.093 39.3848 9.12969 41.8429 9.4286 44.5737C9.72752 47.3045 12.1759 49.2778 14.9021 48.9851Z" fill="url(#paint0_linear_3613_1655)"/>
<path d="M27.0357 24.5642C27.7246 24.4647 28.2225 24.9838 28.7505 25.3762L31.4089 27.3483C31.6867 27.554 32.4939 28.1772 32.7613 28.2964C33.0992 28.2207 33.3884 28.17 33.7355 28.2205C34.2256 28.2928 34.6646 28.5625 34.9509 28.9672C35.2211 29.3511 35.3294 29.8263 35.2522 30.2896C35.1593 30.8566 34.8655 31.2238 34.4186 31.5484C33.3498 32.1561 32.0697 31.7093 31.7113 30.4717C31.6608 30.2971 31.6446 30.0151 31.624 29.827C31.4352 29.6285 30.855 29.221 30.6127 29.0426L28.1073 27.2011C27.6621 26.8739 27.2115 26.5541 26.7802 26.2071C26.4078 25.9076 26.2562 25.5294 26.4689 25.0753C26.601 24.7933 26.754 24.6761 27.0357 24.5642Z" fill="#FF6A00"/>
<defs>
<linearGradient id="paint0_linear_3613_1655" x1="13.0891" y1="17.2598" x2="36.4758" y2="59.8457" gradientUnits="userSpaceOnUse">
<stop stop-color="#FF6A00"/>
<stop offset="1" stop-color="#AF4900"/>
</linearGradient>
</defs>
</svg>
