<svg width="20" height="20" viewBox="0 0 20 20" fill="none" xmlns="http://www.w3.org/2000/svg">
<path d="M5.83379 15.8332H4.01296C3.7501 15.8339 3.4915 15.7667 3.26227 15.6381C3.03303 15.5095 2.84094 15.3238 2.70462 15.099C2.57372 14.8733 2.5045 14.6171 2.50391 14.3561C2.50332 14.0952 2.5714 13.8387 2.70129 13.6123L5.99712 7.9165" stroke="#0A0A0A" stroke-width="1.25" stroke-linecap="round" stroke-linejoin="round"/>
<path d="M9.16602 15.8332H16.0018C16.2634 15.8312 16.5201 15.7619 16.7472 15.632C16.9743 15.5021 17.1641 15.316 17.2985 15.0915C17.4276 14.8664 17.4955 14.6115 17.4955 14.352C17.4955 14.0925 17.4276 13.8375 17.2985 13.6124L16.2768 11.8457" stroke="#0A0A0A" stroke-width="1.25" stroke-linecap="round" stroke-linejoin="round"/>
<path d="M11.666 13.3335L9.16602 15.8335L11.666 18.3335" stroke="#0A0A0A" stroke-width="1.25" stroke-linecap="round" stroke-linejoin="round"/>
<path d="M6.91148 11.3298L5.99732 7.9165L2.58398 8.8315" stroke="#0A0A0A" stroke-width="1.25" stroke-linecap="round" stroke-linejoin="round"/>
<path d="M7.78711 4.8425L8.69794 3.26584C8.82873 3.03783 9.01624 2.84751 9.24226 2.71332C9.46828 2.57914 9.72515 2.50566 9.98794 2.5C10.2487 2.49952 10.505 2.56764 10.7312 2.69752C10.9573 2.82741 11.1453 3.0145 11.2763 3.24L14.5621 8.9425" stroke="#0A0A0A" stroke-width="1.25" stroke-linecap="round" stroke-linejoin="round"/>
<path d="M11.1484 8.02751L14.5618 8.94251L15.4759 5.52917" stroke="#0A0A0A" stroke-width="1.25" stroke-linecap="round" stroke-linejoin="round"/>
</svg>
