<svg width="20" height="20" viewBox="0 0 20 20" fill="none" xmlns="http://www.w3.org/2000/svg">
<path d="M16.6673 10.8335C16.6673 15.0002 13.7507 17.0835 10.284 18.2919C10.1025 18.3534 9.90527 18.3505 9.72565 18.2835C6.25065 17.0835 3.33398 15.0002 3.33398 10.8335V5.00021C3.33398 4.7792 3.42178 4.56724 3.57806 4.41096C3.73434 4.25468 3.9463 4.16688 4.16732 4.16688C5.83398 4.16688 7.91732 3.16688 9.36732 1.90021C9.54386 1.74938 9.76845 1.6665 10.0007 1.6665C10.2329 1.6665 10.4574 1.74938 10.634 1.90021C12.0923 3.17521 14.1673 4.16688 15.834 4.16688C16.055 4.16688 16.267 4.25468 16.4232 4.41096C16.5795 4.56724 16.6673 4.7792 16.6673 5.00021V10.8335Z" stroke="#0A0A0A" stroke-width="1.25" stroke-linecap="round" stroke-linejoin="round"/>
</svg>
