<svg width="20" height="20" viewBox="0 0 20 20" fill="none" xmlns="http://www.w3.org/2000/svg">
<path d="M9.16742 16.6665C7.70414 16.6709 6.29263 16.1253 5.21285 15.1377C4.13307 14.1501 3.46389 12.7928 3.33804 11.3349C3.21218 9.87706 3.63883 8.42514 4.53338 7.26712C5.42793 6.10911 6.72503 5.32959 8.16742 5.08317C12.9174 4.1665 14.1674 3.73317 15.8341 1.6665C16.6674 3.33317 17.5008 5.14984 17.5008 8.33317C17.5008 12.9165 13.5174 16.6665 9.16742 16.6665Z" stroke="#0A0A0A" stroke-width="1.25" stroke-linecap="round" stroke-linejoin="round"/>
<path d="M1.66602 17.5C1.66602 15 3.20768 13.0333 5.89935 12.5C7.91602 12.1 9.99935 10.8333 10.8327 10" stroke="#0A0A0A" stroke-width="1.25" stroke-linecap="round" stroke-linejoin="round"/>
</svg>
