<svg width="32" height="32" viewBox="0 0 32 32" fill="none" xmlns="http://www.w3.org/2000/svg">
<path d="M13.334 16H18.6673" stroke="#0D0D0D" stroke-width="2.66667" stroke-linecap="round" stroke-linejoin="round"/>
<path d="M13.334 10.6665H18.6673" stroke="#0D0D0D" stroke-width="2.66667" stroke-linecap="round" stroke-linejoin="round"/>
<path d="M18.6673 28.0002V24.0002C18.6673 23.2929 18.3864 22.6146 17.8863 22.1145C17.3862 21.6144 16.7079 21.3335 16.0007 21.3335C15.2934 21.3335 14.6151 21.6144 14.115 22.1145C13.6149 22.6146 13.334 23.2929 13.334 24.0002V28.0002" stroke="#0D0D0D" stroke-width="2.66667" stroke-linecap="round" stroke-linejoin="round"/>
<path d="M7.99935 13.3335H5.33268C4.62544 13.3335 3.94716 13.6144 3.44706 14.1145C2.94697 14.6146 2.66602 15.2929 2.66602 16.0002V25.3335C2.66602 26.0407 2.94697 26.719 3.44706 27.2191C3.94716 27.7192 4.62544 28.0002 5.33268 28.0002H26.666C27.3733 28.0002 28.0515 27.7192 28.5516 27.2191C29.0517 26.719 29.3327 26.0407 29.3327 25.3335V12.0002C29.3327 11.2929 29.0517 10.6146 28.5516 10.1145C28.0515 9.61445 27.3733 9.3335 26.666 9.3335H23.9993" stroke="#0D0D0D" stroke-width="2.66667" stroke-linecap="round" stroke-linejoin="round"/>
<path d="M8 28V6.66667C8 5.95942 8.28095 5.28115 8.78105 4.78105C9.28115 4.28095 9.95942 4 10.6667 4H21.3333C22.0406 4 22.7189 4.28095 23.219 4.78105C23.719 5.28115 24 5.95942 24 6.66667V28" stroke="#0D0D0D" stroke-width="2.66667" stroke-linecap="round" stroke-linejoin="round"/>
</svg>
