<svg width="359" height="298" viewBox="0 0 359 298" fill="none" xmlns="http://www.w3.org/2000/svg">
<g filter="url(#filter0_di_2361_13444)">
<path d="M73.7692 225.585C63.5666 207.913 57.9729 187.959 57.5029 167.559C57.0329 147.159 61.7018 126.969 71.0798 108.847C80.4578 90.724 94.2436 75.2514 111.168 63.853C128.093 52.4545 147.613 45.4964 167.932 43.619C188.251 41.7416 208.715 45.0053 227.442 53.1096C246.169 61.2139 262.556 73.8985 275.096 89.9959C287.636 106.093 295.925 125.086 299.201 145.227C302.477 165.368 300.634 186.009 293.842 205.25L179.125 164.757L73.7692 225.585Z" fill="url(#paint0_radial_2361_13444)" shape-rendering="crispEdges"/>
</g>
<defs>
<filter id="filter0_di_2361_13444" x="0.000362396" y="0.000271797" width="358.249" height="297.422" filterUnits="userSpaceOnUse" color-interpolation-filters="sRGB">
<feFlood flood-opacity="0" result="BackgroundImageFix"/>
<feColorMatrix in="SourceAlpha" type="matrix" values="0 0 0 0 0 0 0 0 0 0 0 0 0 0 0 0 0 0 127 0" result="hardAlpha"/>
<feOffset dy="14.3676"/>
<feGaussianBlur stdDeviation="28.7352"/>
<feComposite in2="hardAlpha" operator="out"/>
<feColorMatrix type="matrix" values="0 0 0 0 0 0 0 0 0 0 0 0 0 0 0 0 0 0 0.4 0"/>
<feBlend mode="normal" in2="BackgroundImageFix" result="effect1_dropShadow_2361_13444"/>
<feBlend mode="normal" in="SourceGraphic" in2="effect1_dropShadow_2361_13444" result="shape"/>
<feColorMatrix in="SourceAlpha" type="matrix" values="0 0 0 0 0 0 0 0 0 0 0 0 0 0 0 0 0 0 127 0" result="hardAlpha"/>
<feOffset dy="1.79595"/>
<feComposite in2="hardAlpha" operator="arithmetic" k2="-1" k3="1"/>
<feColorMatrix type="matrix" values="0 0 0 0 1 0 0 0 0 1 0 0 0 0 1 0 0 0 0.05 0"/>
<feBlend mode="normal" in2="shape" result="effect2_innerShadow_2361_13444"/>
</filter>
<radialGradient id="paint0_radial_2361_13444" cx="0" cy="0" r="1" gradientUnits="userSpaceOnUse" gradientTransform="translate(179.125 164.757) rotate(-180) scale(121.654 121.654)">
<stop offset="0.706452" stop-opacity="0"/>
<stop offset="1" stop-color="#FF6A00"/>
</radialGradient>
</defs>
</svg>
