<svg width="21" height="21" viewBox="0 0 21 21" fill="none" xmlns="http://www.w3.org/2000/svg">
<g clip-path="url(#clip0_3473_8624)">
<path d="M16.9884 8.49371C16.9884 12.7346 12.2837 17.1514 10.7039 18.5155C10.5567 18.6261 10.3776 18.686 10.1934 18.686C10.0093 18.686 9.83012 18.6261 9.68294 18.5155C8.10311 17.1514 3.39844 12.7346 3.39844 8.49371C3.39844 6.69157 4.11434 4.96324 5.38864 3.68893C6.66295 2.41463 8.39128 1.69873 10.1934 1.69873C11.9956 1.69873 13.7239 2.41463 14.9982 3.68893C16.2725 4.96324 16.9884 6.69157 16.9884 8.49371Z" stroke="#FF6B1A" stroke-width="1.69874" stroke-linecap="round" stroke-linejoin="round"/>
<path d="M10.1926 11.0418C11.5999 11.0418 12.7408 9.90096 12.7408 8.49367C12.7408 7.08639 11.5999 5.94556 10.1926 5.94556C8.78536 5.94556 7.64453 7.08639 7.64453 8.49367C7.64453 9.90096 8.78536 11.0418 10.1926 11.0418Z" stroke="#FF6B1A" stroke-width="1.69874" stroke-linecap="round" stroke-linejoin="round"/>
</g>
<defs>
<clipPath id="clip0_3473_8624">
<rect width="20.3849" height="20.3849" fill="white"/>
</clipPath>
</defs>
</svg>
